<svg width="16" height="16" viewBox="0 0 16 16" fill="none" xmlns="http://www.w3.org/2000/svg">
<g clip-path="url(#clip0_100_178)">
<path d="M12 0H4C3.46957 0 2.96086 0.210714 2.58579 0.585786C2.21071 0.960859 2 1.46957 2 2V14C2 14.5304 2.21071 15.0391 2.58579 15.4142C2.96086 15.7893 3.46957 16 4 16H12C12.5304 16 13.0391 15.7893 13.4142 15.4142C13.7893 15.0391 14 14.5304 14 14V2C14 1.46957 13.7893 0.960859 13.4142 0.585786C13.0391 0.210714 12.5304 0 12 0ZM5 4C4.80222 4 4.60888 3.94135 4.44443 3.83147C4.27998 3.72159 4.15181 3.56541 4.07612 3.38268C4.00043 3.19996 3.98063 2.99889 4.01921 2.80491C4.0578 2.61093 4.15304 2.43275 4.29289 2.29289C4.43275 2.15304 4.61093 2.0578 4.80491 2.01921C4.99889 1.98063 5.19996 2.00043 5.38268 2.07612C5.56541 2.15181 5.72159 2.27998 5.83147 2.44443C5.94135 2.60888 6 2.80222 6 3C6 3.26522 5.89464 3.51957 5.70711 3.70711C5.51957 3.89464 5.26522 4 5 4Z" fill="white"/>
</g>
<defs>
<clipPath id="clip0_100_178">
<rect width="16" height="16" fill="white"/>
</clipPath>
</defs>
</svg>
