<svg width="16" height="16" viewBox="0 0 16 16" fill="none" xmlns="http://www.w3.org/2000/svg">
<g clip-path="url(#clip0_99_170)">
<path d="M14 1H2C1.46957 1 0.960859 1.21071 0.585786 1.58579C0.210714 1.96086 0 2.46957 0 3L0 3.4L8 7.9L16 3.5V3C16 2.46957 15.7893 1.96086 15.4142 1.58579C15.0391 1.21071 14.5304 1 14 1Z" fill="white"/>
<path d="M7.5 9.90001L0 5.70001V13C0 13.5304 0.210714 14.0392 0.585786 14.4142C0.960859 14.7893 1.46957 15 2 15H14C14.5304 15 15.0391 14.7893 15.4142 14.4142C15.7893 14.0392 16 13.5304 16 13V5.70001L8.5 9.90001C8.3424 9.96926 8.17214 10.005 8 10.005C7.82786 10.005 7.6576 9.96926 7.5 9.90001Z" fill="white"/>
</g>
<defs>
<clipPath id="clip0_99_170">
<rect width="16" height="16" fill="white"/>
</clipPath>
</defs>
</svg>
